<svg width="44" height="44" viewBox="0 0 44 44" fill="none" xmlns="http://www.w3.org/2000/svg">
<path d="M30.25 15.8216C29.4983 15.8216 28.875 15.1983 28.875 14.4466V11.9166C28.875 9.99165 28.05 8.12165 26.62 6.81998C25.1717 5.49998 23.3017 4.89498 21.3217 5.07831C18.0217 5.38998 15.125 8.76331 15.125 12.2833V14.0616C15.125 14.8133 14.5017 15.4366 13.75 15.4366C12.9983 15.4366 12.375 14.8133 12.375 14.0616V12.265C12.375 7.33331 16.3533 2.78665 21.065 2.32831C23.815 2.07165 26.455 2.93331 28.4717 4.78498C30.47 6.59998 31.625 9.20331 31.625 11.9166V14.4466C31.625 15.1983 31.0017 15.8216 30.25 15.8216Z" fill="#171717"/>
<path d="M27.5 41.7083H16.5C8.03 41.7083 6.45334 37.7666 6.05 33.935L4.675 22.9533C4.47334 20.9733 4.4 18.1316 6.325 16.005C7.975 14.1716 10.7067 13.2916 14.6667 13.2916H29.3333C33.3117 13.2916 36.0433 14.19 37.675 16.005C39.5817 18.1316 39.5267 20.9733 39.325 22.9166L37.95 33.935C37.5467 37.7666 35.97 41.7083 27.5 41.7083ZM14.6667 16.0416C11.5683 16.0416 9.44167 16.6466 8.36 17.8566C7.46167 18.8466 7.16834 20.3683 7.40667 22.6416L8.78167 33.6233C9.09334 36.5566 9.9 38.9766 16.5 38.9766H27.5C34.1 38.9766 34.9067 36.575 35.2183 33.66L36.5933 22.6416C36.8317 20.405 36.5383 18.8833 35.64 17.875C34.5583 16.6466 32.4317 16.0416 29.3333 16.0416H14.6667Z" fill="#171717"/>
<path d="M28.27 24.1083C27.2433 24.1083 26.4183 23.2833 26.4183 22.275C26.4183 21.2667 27.2433 20.4417 28.2517 20.4417C29.26 20.4417 30.085 21.2667 30.085 22.275C30.085 23.2833 29.2783 24.1083 28.27 24.1083Z" fill="#171717"/>
<path d="M15.4367 24.1083C14.41 24.1083 13.585 23.2833 13.585 22.275C13.585 21.2667 14.41 20.4417 15.4183 20.4417C16.4267 20.4417 17.2517 21.2667 17.2517 22.275C17.2517 23.2833 16.445 24.1083 15.4367 24.1083Z" fill="#171717"/>
</svg>
