<svg width="44" height="44" viewBox="0 0 44 44" fill="none" xmlns="http://www.w3.org/2000/svg">
<path d="M22 41.7079C20.7167 41.7079 19.415 41.2129 18.4433 40.2412L15.3083 37.1429C14.5383 36.3729 13.475 35.9512 12.3934 35.9512H11C7.205 35.9512 4.125 32.8896 4.125 29.1312V9.12952C4.125 5.37118 7.205 2.30957 11 2.30957H33C36.795 2.30957 39.875 5.37118 39.875 9.12952V29.1312C39.875 32.8896 36.795 35.9512 33 35.9512H31.6066C30.525 35.9512 29.4617 36.3912 28.6917 37.1429L25.5567 40.2412C24.585 41.2129 23.2833 41.7079 22 41.7079ZM11 5.04122C8.72667 5.04122 6.875 6.8745 6.875 9.11117V29.1129C6.875 31.3679 8.72667 33.1828 11 33.1828H12.3934C14.2084 33.1828 15.9683 33.9162 17.2516 35.1812L20.3867 38.2796C21.285 39.1596 22.7334 39.1596 23.6317 38.2796L26.7666 35.1812C28.05 33.9162 29.81 33.1828 31.625 33.1828H33C35.2733 33.1828 37.125 31.3496 37.125 29.1129V9.11117C37.125 6.85617 35.2733 5.04122 33 5.04122H11Z" fill="#171717"/>
<path d="M21.9997 19.708C18.8831 19.708 16.353 17.1779 16.353 14.0613C16.353 10.9446 18.8831 8.41467 21.9997 8.41467C25.1164 8.41467 27.6464 10.9446 27.6464 14.0613C27.6464 17.1779 25.1164 19.708 21.9997 19.708ZM21.9997 11.1647C20.4047 11.1647 19.103 12.4663 19.103 14.0613C19.103 15.6563 20.4047 16.958 21.9997 16.958C23.5947 16.958 24.8964 15.6563 24.8964 14.0613C24.8964 12.4663 23.5947 11.1647 21.9997 11.1647Z" fill="#171717"/>
<path d="M29.3332 30.0856C28.5815 30.0856 27.9582 29.4622 27.9582 28.7106C27.9582 26.1806 25.2815 24.109 21.9998 24.109C18.7182 24.109 16.0415 26.1806 16.0415 28.7106C16.0415 29.4622 15.4182 30.0856 14.6665 30.0856C13.9148 30.0856 13.2915 29.4622 13.2915 28.7106C13.2915 24.6589 17.1965 21.359 21.9998 21.359C26.8032 21.359 30.7082 24.6589 30.7082 28.7106C30.7082 29.4622 30.0848 30.0856 29.3332 30.0856Z" fill="#171717"/>
</svg>
